<?xml version="1.0" encoding="utf-8"?>
<!-- Generator: Adobe Illustrator 16.0.0, SVG Export Plug-In . SVG Version: 6.00 Build 0)  -->
<!DOCTYPE svg PUBLIC "-//W3C//DTD SVG 1.1//EN" "http://www.w3.org/Graphics/SVG/1.1/DTD/svg11.dtd">
<svg version="1.1" id="图层_1" xmlns="http://www.w3.org/2000/svg" xmlns:xlink="http://www.w3.org/1999/xlink" x="0px" y="0px"
	 width="55px" height="55px" viewBox="0 0 55 55" enable-background="new 0 0 55 55" xml:space="preserve">
<g>
	<path fill="#FFFFFF" d="M42.496,17.125H12.304c-1.636,0-2.975,1.338-2.975,2.975v18.322c0,1.637,1.339,2.976,2.975,2.976h30.192
		c1.637,0,2.976-1.339,2.976-2.976V20.1C45.472,18.463,44.133,17.125,42.496,17.125z M45.466,24.613l-18.065,8.212L9.334,24.613
		v-2.391l18.066,7.67l18.065-7.67V24.613z"/>
	<path fill="#CCC6B6" d="M9.368,22.861v15.561c0,1.637,1.339,2.976,2.975,2.976h30.193c1.637,0,2.975-1.339,2.975-2.976V22.861
		l-18.071,7.061L9.368,22.861z M45.505,24.613L27.44,32.825L9.374,24.613v-2.391l18.066,7.67l18.064-7.67V24.613z"/>
	<path fill="#F2ECD6" d="M42.839,23.775c0,1.624-9.725,6.816-11.348,6.816h-7.554c-1.624,0-11.897-5.192-11.897-6.816v-11.41
		c0-1.625,1.328-2.952,2.952-2.952h24.896c1.625,0,2.952,1.328,2.952,2.952V23.775z"/>
	<rect x="14.253" y="11.745" fill="#FFFFFF" width="24.769" height="2.536"/>
	<rect x="14.253" y="15.215" fill="#FFFFFF" width="19.594" height="2.537"/>
	<rect x="14.253" y="18.688" fill="#FFFFFF" width="15.257" height="2.534"/>
	<rect x="14.253" y="22.158" fill="#FFFFFF" width="26.208" height="2.533"/>
	<rect x="18.08" y="25.846" fill="#FFFFFF" width="18.719" height="2.533"/>
	<path fill="#F2ECD6" d="M27.439,0C12.308,0,0,12.309,0,27.439s12.308,27.439,27.439,27.439c15.131,0,27.439-12.309,27.439-27.439
		S42.57,0,27.439,0z M27.439,52.169c-13.638,0-24.729-11.094-24.729-24.729C2.71,13.802,13.802,2.71,27.439,2.71
		c13.635,0,24.729,11.092,24.729,24.729C52.169,41.075,41.074,52.169,27.439,52.169z"/>
	<polygon fill="#C9BC9C" points="9.374,22.222 9.374,24.613 27.44,32.825 45.505,24.613 45.505,22.222 27.44,29.893 	"/>
</g>
</svg>
