<?xml version="1.0" encoding="utf-8"?>
<!-- Generator: Adobe Illustrator 16.0.0, SVG Export Plug-In . SVG Version: 6.00 Build 0)  -->
<!DOCTYPE svg PUBLIC "-//W3C//DTD SVG 1.1//EN" "http://www.w3.org/Graphics/SVG/1.1/DTD/svg11.dtd">
<svg version="1.1" id="图层_1" xmlns="http://www.w3.org/2000/svg" xmlns:xlink="http://www.w3.org/1999/xlink" x="0px" y="0px"
	 width="105px" height="105px" viewBox="0 0 105 105" enable-background="new 0 0 105 105" xml:space="preserve">
<linearGradient id="SVGID_1_" gradientUnits="userSpaceOnUse" x1="154.209" y1="-218.4155" x2="246.1113" y2="-218.4155" gradientTransform="matrix(1 0 0 -1 -147.6602 -164.96)">
	<stop  offset="0" style="stop-color:#CCCCCC"/>
	<stop  offset="0.3211" style="stop-color:#E2E2E2"/>
	<stop  offset="0.7327" style="stop-color:#F7F7F7"/>
	<stop  offset="1" style="stop-color:#FFFFFF"/>
</linearGradient>
<path fill="none" stroke="url(#SVGID_1_)" stroke-width="1.3548" stroke-miterlimit="10" d="M23.777,93.666
	C13.671,85.363,7.226,72.77,7.226,58.668c0-25.003,20.27-45.272,45.274-45.272s45.273,20.27,45.273,45.272
	c0,14.102-6.445,26.697-16.553,35.001"/>
<radialGradient id="SVGID_2_" cx="186.4102" cy="-221.4922" r="42.7821" gradientTransform="matrix(1 0 0 -1 -147.6602 -164.96)" gradientUnits="userSpaceOnUse">
	<stop  offset="0.8543" style="stop-color:#E6FFFF"/>
	<stop  offset="0.871" style="stop-color:#E1FBFB"/>
	<stop  offset="0.891" style="stop-color:#D2EEF0"/>
	<stop  offset="0.9128" style="stop-color:#BAD9DE"/>
	<stop  offset="0.9358" style="stop-color:#98BBC4"/>
	<stop  offset="0.9597" style="stop-color:#6D95A3"/>
	<stop  offset="0.984" style="stop-color:#38687B"/>
	<stop  offset="1" style="stop-color:#12465E"/>
</radialGradient>
<path fill="url(#SVGID_2_)" stroke="#00CC00" stroke-width="5.4193" stroke-miterlimit="10" d="M23.777,93.666
	C13.671,85.363,7.226,72.77,7.226,58.668c0-25.003,20.27-45.272,45.274-45.272c6.063,0,11.846,1.19,17.129,3.353
	c13.791,5.641,24.18,17.89,27.229,32.809c0.602,2.943,0.916,5.99,0.916,9.111c0.002,14.103-6.444,26.697-16.553,35.001"/>
<path fill="none" stroke="#FF0033" stroke-width="5.4193" stroke-miterlimit="10" d="M96.855,49.557
	c0.603,2.943,0.918,5.99,0.918,9.111c0,14.102-6.445,26.697-16.553,35.001"/>
<path fill="none" stroke="#FFCC33" stroke-width="5.4193" stroke-miterlimit="10" d="M52.5,13.396c6.063,0,11.846,1.19,17.129,3.353
	c13.791,5.641,24.18,17.89,27.229,32.809"/>
<path fill="#333333" stroke="#CCCCCC" stroke-width="0.3147" stroke-miterlimit="10" d="M27.774,88.809
	C19.16,81.668,13.666,70.84,13.666,58.715c0-21.5,17.279-38.93,38.594-38.93c5.168,0,10.098,1.023,14.604,2.883
	c11.756,4.849,20.609,15.385,23.21,28.21c0.513,2.532,0.782,5.152,0.782,7.835c0,12.129-5.494,22.957-14.11,30.1"/>
<linearGradient id="SVGID_3_" gradientUnits="userSpaceOnUse" x1="127.9463" y1="-160.5889" x2="132.0788" y2="-182.308" gradientTransform="matrix(0.9834 0.1817 0.1812 -0.9835 -44.5823 -143.335)">
	<stop  offset="0" style="stop-color:#CCCCCC"/>
	<stop  offset="0.0959" style="stop-color:#B1B1B1"/>
	<stop  offset="0.3352" style="stop-color:#737373"/>
	<stop  offset="0.5538" style="stop-color:#414141"/>
	<stop  offset="0.7445" style="stop-color:#1E1E1E"/>
	<stop  offset="0.8996" style="stop-color:#080808"/>
	<stop  offset="1" style="stop-color:#000000"/>
</linearGradient>
<polygon fill="url(#SVGID_3_)" points="48.695,58.67 51.824,27.643 55.826,58.67 52.261,67.871 "/>
<circle fill="#CCCCCC" cx="52.261" cy="58.202" r="1.468"/>
<path fill="none" d="M32.646,83.286c-6.9-5.619-11.301-14.138-11.301-23.679c0-16.915,13.841-30.629,30.915-30.629
	c4.139,0,8.088,0.807,11.697,2.269c9.416,3.814,16.509,12.105,18.591,22.194c0.411,1.992,0.627,4.055,0.627,6.166
	c0.001,9.541-4.401,18.063-11.303,23.683"/>
<text transform="matrix(-0.725 -0.6887 0.6887 -0.725 32.6602 83.4258)" fill="#CCFFFF" font-family="'NotoSansHans-Medium-GBpc-EUC-H'" font-size="8.6817">0</text>
<text transform="matrix(-0.3382 -0.9411 0.9411 -0.3382 23.9634 72.2139)" fill="#CCFFFF" font-family="'NotoSansHans-Medium-GBpc-EUC-H'" font-size="8.682">1</text>
<text transform="matrix(0.1233 -0.9924 0.9924 0.1233 21.2725 58.2822)" fill="#CCFFFF" font-family="'NotoSansHans-Medium-GBpc-EUC-H'" font-size="8.682">2</text>
<text transform="matrix(0.5596 -0.8287 0.8287 0.5596 25.1602 44.6489)" fill="#CCFFFF" font-family="'NotoSansHans-Medium-GBpc-EUC-H'" font-size="8.6815">3</text>
<text transform="matrix(0.8704 -0.4924 0.4924 0.8704 34.7979 34.21)" fill="#CCFFFF" font-family="'NotoSansHans-Medium-GBpc-EUC-H'" font-size="8.682">4</text>
<text transform="matrix(0.9985 -0.0549 0.0549 0.9985 48.0498 29.1611)" fill="#CCFFFF" font-family="'NotoSansHans-Medium-GBpc-EUC-H'" font-size="8.682">5</text>
<text transform="matrix(0.9187 0.3949 -0.3949 0.9187 62.2051 30.4873)" fill="#CCFFFF" font-family="'NotoSansHans-Medium-GBpc-EUC-H'" font-size="8.682">6</text>
<text transform="matrix(0.6486 0.7611 -0.7611 0.6486 74.2832 37.9746)" fill="#CCFFFF" font-family="'NotoSansHans-Medium-GBpc-EUC-H'" font-size="8.682">7</text>
<text transform="matrix(0.235 0.972 -0.972 0.235 81.7412 50.0381)" fill="#CCFFFF" font-family="'NotoSansHans-Medium-GBpc-EUC-H'" font-size="8.682">8</text>
<text transform="matrix(-0.2292 0.9734 -0.9734 -0.2292 82.9326 64.1865)" fill="#CCFFFF" font-family="'NotoSansHans-Medium-GBpc-EUC-H'" font-size="8.682">9</text>
<text transform="matrix(-0.6436 0.7654 -0.7654 -0.6436 77.6123 77.3115)" fill="#CCFFFF" font-family="'NotoSansHans-Medium-GBpc-EUC-H'" font-size="8.682">1</text>
<text transform="matrix(-0.7163 0.6978 -0.6978 -0.7163 75.7021 79.7266)" fill="#CCFFFF" font-family="'NotoSansHans-Medium-GBpc-EUC-H'" font-size="8.682">0</text>
<g>
	
		<line fill="none" stroke="#5C5D5D" stroke-width="0.3387" stroke-miterlimit="10" x1="82.748" y1="95.686" x2="79.48" y2="91.725"/>
	
		<line fill="none" stroke="#5C5D5D" stroke-width="0.3387" stroke-miterlimit="10" x1="86.16" y1="92.602" x2="82.527" y2="88.966"/>
	
		<line fill="none" stroke="#5C5D5D" stroke-width="0.3387" stroke-miterlimit="10" x1="89.268" y1="89.207" x2="85.305" y2="85.93"/>
	
		<line fill="none" stroke="#5C5D5D" stroke-width="0.3387" stroke-miterlimit="10" x1="92.046" y1="85.521" x2="87.784" y2="82.639"/>
	
		<line fill="none" stroke="#5C5D5D" stroke-width="0.3387" stroke-miterlimit="10" x1="94.471" y1="81.574" x2="89.945" y2="79.111"/>
	
		<line fill="none" stroke="#5C5D5D" stroke-width="0.3387" stroke-miterlimit="10" x1="96.514" y1="77.384" x2="91.768" y2="75.375"/>
	
		<line fill="none" stroke="#5C5D5D" stroke-width="0.3387" stroke-miterlimit="10" x1="98.15" y1="72.979" x2="93.227" y2="71.448"/>
	
		<line fill="none" stroke="#5C5D5D" stroke-width="0.3387" stroke-miterlimit="10" x1="99.354" y1="68.382" x2="94.297" y2="67.355"/>
	
		<line fill="none" stroke="#5C5D5D" stroke-width="0.3387" stroke-miterlimit="10" x1="100.1" y1="63.621" x2="94.959" y2="63.114"/>
	
		<line fill="none" stroke="#5C5D5D" stroke-width="0.3387" stroke-miterlimit="10" x1="100.357" y1="58.721" x2="95.188" y2="58.747"/>
	
		<line fill="none" stroke="#5C5D5D" stroke-width="0.3387" stroke-miterlimit="10" x1="100.133" y1="53.979" x2="94.986" y2="54.516"/>
	
		<line fill="none" stroke="#5C5D5D" stroke-width="0.3387" stroke-miterlimit="10" x1="99.457" y1="49.367" x2="94.387" y2="50.405"/>
	
		<line fill="none" stroke="#5C5D5D" stroke-width="0.3387" stroke-miterlimit="10" x1="98.296" y1="44.716" x2="93.354" y2="46.262"/>
	
		<line fill="none" stroke="#5C5D5D" stroke-width="0.3387" stroke-miterlimit="10" x1="96.688" y1="40.24" x2="91.921" y2="42.277"/>
	
		<line fill="none" stroke="#5C5D5D" stroke-width="0.3387" stroke-miterlimit="10" x1="94.66" y1="35.984" x2="90.115" y2="38.485"/>
	
		<line fill="none" stroke="#5C5D5D" stroke-width="0.3387" stroke-miterlimit="10" x1="92.238" y1="31.973" x2="87.959" y2="34.91"/>
	
		<line fill="none" stroke="#5C5D5D" stroke-width="0.3387" stroke-miterlimit="10" x1="89.447" y1="28.23" x2="85.473" y2="31.573"/>
	
		<line fill="none" stroke="#5C5D5D" stroke-width="0.3387" stroke-miterlimit="10" x1="86.314" y1="24.782" x2="82.68" y2="28.499"/>
	
		<line fill="none" stroke="#5C5D5D" stroke-width="0.3387" stroke-miterlimit="10" x1="82.861" y1="21.653" x2="79.604" y2="25.707"/>
	
		<line fill="none" stroke="#5C5D5D" stroke-width="0.3387" stroke-miterlimit="10" x1="79.115" y1="18.867" x2="76.266" y2="23.224"/>
	<line fill="none" stroke="#5C5D5D" stroke-width="0.3387" stroke-miterlimit="10" x1="75.1" y1="16.45" x2="72.689" y2="21.069"/>
	
		<line fill="none" stroke="#5C5D5D" stroke-width="0.3387" stroke-miterlimit="10" x1="70.839" y1="14.427" x2="68.898" y2="19.267"/>
	
		<line fill="none" stroke="#5C5D5D" stroke-width="0.3387" stroke-miterlimit="10" x1="66.496" y1="12.866" x2="65.035" y2="17.874"/>
	
		<line fill="none" stroke="#5C5D5D" stroke-width="0.3387" stroke-miterlimit="10" x1="61.979" y1="11.724" x2="61.018" y2="16.855"/>
	
		<line fill="none" stroke="#5C5D5D" stroke-width="0.3387" stroke-miterlimit="10" x1="57.307" y1="11.021" x2="56.855" y2="16.228"/>
	
		<line fill="none" stroke="#5C5D5D" stroke-width="0.3387" stroke-miterlimit="10" x1="52.499" y1="10.781" x2="52.571" y2="16.01"/>
	
		<line fill="none" stroke="#5C5D5D" stroke-width="0.3387" stroke-miterlimit="10" x1="47.603" y1="11.027" x2="48.206" y2="16.224"/>
	
		<line fill="none" stroke="#5C5D5D" stroke-width="0.3387" stroke-miterlimit="10" x1="42.843" y1="11.752" x2="43.969" y2="16.866"/>
	
		<line fill="none" stroke="#5C5D5D" stroke-width="0.3387" stroke-miterlimit="10" x1="38.248" y1="12.933" x2="39.881" y2="17.912"/>
	
		<line fill="none" stroke="#5C5D5D" stroke-width="0.3387" stroke-miterlimit="10" x1="33.842" y1="14.545" x2="35.962" y2="19.34"/>
	
		<line fill="none" stroke="#5C5D5D" stroke-width="0.3387" stroke-miterlimit="10" x1="29.651" y1="16.563" x2="32.232" y2="21.132"/>
	<line fill="none" stroke="#5C5D5D" stroke-width="0.3387" stroke-miterlimit="10" x1="25.7" y1="18.964" x2="28.713" y2="23.264"/>
	
		<line fill="none" stroke="#5C5D5D" stroke-width="0.3387" stroke-miterlimit="10" x1="22.01" y1="21.723" x2="25.426" y2="25.716"/>
	
		<line fill="none" stroke="#5C5D5D" stroke-width="0.3387" stroke-miterlimit="10" x1="18.607" y1="24.816" x2="22.393" y2="28.466"/>
	
		<line fill="none" stroke="#5C5D5D" stroke-width="0.3387" stroke-miterlimit="10" x1="15.516" y1="28.22" x2="19.636" y2="31.493"/>
	
		<line fill="none" stroke="#5C5D5D" stroke-width="0.3387" stroke-miterlimit="10" x1="12.758" y1="31.91" x2="17.177" y2="34.774"/>
	
		<line fill="none" stroke="#5C5D5D" stroke-width="0.3387" stroke-miterlimit="10" x1="10.358" y1="35.864" x2="15.037" y2="38.288"/>
	<line fill="none" stroke="#5C5D5D" stroke-width="0.3387" stroke-miterlimit="10" x1="8.34" y1="40.056" x2="13.238" y2="42.012"/>
	
		<line fill="none" stroke="#5C5D5D" stroke-width="0.3387" stroke-miterlimit="10" x1="6.729" y1="44.464" x2="11.801" y2="45.926"/>
	<line fill="none" stroke="#5C5D5D" stroke-width="0.3387" stroke-miterlimit="10" x1="5.55" y1="49.061" x2="10.746" y2="50.009"/>
	
		<line fill="none" stroke="#5C5D5D" stroke-width="0.3387" stroke-miterlimit="10" x1="4.826" y1="53.822" x2="10.095" y2="54.241"/>
	<line fill="none" stroke="#5C5D5D" stroke-width="0.3387" stroke-miterlimit="10" x1="4.583" y1="58.721" x2="9.87" y2="58.604"/>
	
		<line fill="none" stroke="#5C5D5D" stroke-width="0.3387" stroke-miterlimit="10" x1="4.833" y1="63.632" x2="10.086" y2="62.977"/>
	
		<line fill="none" stroke="#5C5D5D" stroke-width="0.3387" stroke-miterlimit="10" x1="5.565" y1="68.404" x2="10.728" y2="67.223"/>
	
		<line fill="none" stroke="#5C5D5D" stroke-width="0.3387" stroke-miterlimit="10" x1="6.752" y1="73.014" x2="11.775" y2="71.318"/>
	
		<line fill="none" stroke="#5C5D5D" stroke-width="0.3387" stroke-miterlimit="10" x1="8.373" y1="77.432" x2="13.207" y2="75.247"/>
	
		<line fill="none" stroke="#5C5D5D" stroke-width="0.3387" stroke-miterlimit="10" x1="10.401" y1="81.633" x2="15.001" y2="78.984"/>
	
		<line fill="none" stroke="#5C5D5D" stroke-width="0.3387" stroke-miterlimit="10" x1="12.813" y1="85.594" x2="17.137" y2="82.509"/>
	
		<line fill="none" stroke="#5C5D5D" stroke-width="0.3387" stroke-miterlimit="10" x1="15.587" y1="89.291" x2="19.594" y2="85.799"/>
	
		<line fill="none" stroke="#5C5D5D" stroke-width="0.3387" stroke-miterlimit="10" x1="18.696" y1="92.697" x2="22.352" y2="88.833"/>
	
		<line fill="none" stroke="#5C5D5D" stroke-width="0.3387" stroke-miterlimit="10" x1="22.119" y1="95.791" x2="25.386" y2="91.588"/>
</g>
<g>
	
		<linearGradient id="SVGID_4_" gradientUnits="userSpaceOnUse" x1="222.0244" y1="-256.1484" x2="245.9935" y2="-232.1793" gradientTransform="matrix(0.9055 7.000000e-006 0 -1 -159.2705 -164.9427)">
		<stop  offset="0" style="stop-color:#E6E6E6"/>
		<stop  offset="0.093" style="stop-color:#DEDEDE"/>
		<stop  offset="0.2333" style="stop-color:#CACACA"/>
		<stop  offset="0.4036" style="stop-color:#A8A8A8"/>
		<stop  offset="0.5973" style="stop-color:#797979"/>
		<stop  offset="0.8077" style="stop-color:#3D3D3D"/>
		<stop  offset="1" style="stop-color:#000000"/>
	</linearGradient>
	<path fill="url(#SVGID_4_)" d="M70.075,83.17c0,1.075-0.88,1.955-1.955,1.955H37.129c-1.074,0-1.955-0.88-1.955-1.955v-7.896
		c0-1.074,0.881-1.955,1.955-1.955H68.12c1.075,0,1.955,0.881,1.955,1.955V83.17z"/>
	
		<linearGradient id="SVGID_5_" gradientUnits="userSpaceOnUse" x1="214.6123" y1="-244.1631" x2="253.4063" y2="-244.1631" gradientTransform="matrix(0.9055 7.000000e-006 0 -1 -159.2705 -164.9427)">
		<stop  offset="0" style="stop-color:#000000"/>
		<stop  offset="0.2211" style="stop-color:#0D0000"/>
		<stop  offset="0.6934" style="stop-color:#220100"/>
		<stop  offset="1" style="stop-color:#2A0100"/>
	</linearGradient>
	<path fill="none" stroke="url(#SVGID_5_)" stroke-width="0.25" stroke-miterlimit="10" d="M70.075,83.17
		c0,1.075-0.88,1.955-1.955,1.955H37.129c-1.074,0-1.955-0.88-1.955-1.955v-7.896c0-1.074,0.881-1.955,1.955-1.955H68.12
		c1.075,0,1.955,0.881,1.955,1.955V83.17z"/>
</g>
<text transform="matrix(1 3.000030e-005 0 1 42.3086 82.5723)" fill="#FFFFFF" font-family="'MicrosoftYaHeiUI-Bold'" font-size="9.0191">50%</text>
</svg>
