<?xml version="1.0" encoding="utf-8"?>
<!-- Generator: Adobe Illustrator 16.0.0, SVG Export Plug-In . SVG Version: 6.00 Build 0)  -->
<!DOCTYPE svg PUBLIC "-//W3C//DTD SVG 1.1//EN" "http://www.w3.org/Graphics/SVG/1.1/DTD/svg11.dtd">
<svg version="1.1" id="图层_1" xmlns="http://www.w3.org/2000/svg" xmlns:xlink="http://www.w3.org/1999/xlink" x="0px" y="0px"
	 width="55px" height="55px" viewBox="72.5 72.5 55 55" enable-background="new 72.5 72.5 55 55" xml:space="preserve">
<g>
	<g>
		<path fill="#128AFA" d="M77.781,105.035h11.085c0.035-1.248,0.183-2.467,0.445-3.643h-11.53c-1.007,0-1.822,0.816-1.822,1.822
			C75.959,104.219,76.774,105.035,77.781,105.035z"/>
		<path fill="#128AFA" d="M77.781,112.322c-1.007,0-1.822,0.816-1.822,1.82c0,1.006,0.815,1.822,1.822,1.822h14.083
			c-0.726-1.139-1.329-2.359-1.803-3.643H77.781z"/>
		<path fill="#128AFA" d="M77.781,83.178h38.913c1.006,0,1.819-0.819,1.819-1.823c0-1.007-0.813-1.821-1.819-1.821H77.781
			c-1.007,0-1.822,0.814-1.822,1.821C75.959,82.358,76.774,83.178,77.781,83.178z"/>
		<path fill="#128AFA" d="M96.193,90.463H96.19H77.781c-1.007,0-1.822,0.814-1.822,1.821c0,1.004,0.815,1.82,1.822,1.82h14.882
			C93.677,92.74,94.86,91.517,96.193,90.463z"/>
		<path fill="#FF2424" d="M99.837,103.189c0.135-0.68-0.306-1.346-0.989-1.48l-3.647-0.734c-0.679-0.135-1.346,0.307-1.481,0.988
			c-0.029,0.143-0.032,0.293-0.013,0.439c0.078,0.506,0.467,0.936,1,1.045l3.646,0.73C99.033,104.313,99.698,103.875,99.837,103.189
			z"/>
		<path fill="#FF2424" d="M122.593,101.623l-3.679,0.557c-0.688,0.105-1.16,0.75-1.055,1.434c0.103,0.688,0.746,1.162,1.435,1.057
			l3.676-0.559c0.689-0.105,1.161-0.746,1.057-1.438C123.923,101.986,123.28,101.516,122.593,101.623z"/>
		<path fill="#128AFA" d="M116.655,106.293c0-4.271-3.463-7.734-7.731-7.734h-0.11c-4.271,0-7.732,3.463-7.732,7.734v9.5h15.574
			V106.293z M108.866,111.744c-2.985,0-5.41-2.426-5.41-5.412c0-2.982,2.425-5.412,5.41-5.412s5.412,2.43,5.412,5.412
			C114.278,109.318,111.852,111.744,108.866,111.744z"/>
		<path fill="#FF2424" d="M109.024,95.84c0.696,0.015,1.271-0.533,1.288-1.229l-0.009-3.717c0.021-0.693-0.534-1.273-1.228-1.291
			c-0.695-0.018-1.273,0.536-1.288,1.232l0.007,3.717c-0.001,0.073,0.003,0.146,0.012,0.22
			C107.897,95.366,108.405,95.825,109.024,95.84z"/>
		<path fill="#FF2424" d="M117.199,93.548l-2.457,2.795c-0.255,0.287-0.353,0.664-0.3,1.021c0.045,0.284,0.182,0.553,0.414,0.758
			c0.522,0.457,1.32,0.404,1.776-0.114l2.459-2.795c0.461-0.521,0.41-1.32-0.115-1.777C118.458,92.977,117.659,93.03,117.199,93.548
			z"/>
		<path fill="#128AFA" d="M111.454,105.885h-1.623v-2.242c0-0.465-0.376-0.842-0.839-0.842c-0.468,0-0.842,0.377-0.842,0.842v3.082
			c0,0.465,0.374,0.844,0.842,0.844h2.462c0.467,0,0.844-0.379,0.844-0.844S111.921,105.885,111.454,105.885z"/>
		<path fill="#128AFA" d="M117.612,116.881H99.729c-0.991,0-1.794,0.803-1.794,1.791c0,0.992,0.803,1.795,1.794,1.795h17.884
			c0.987,0,1.794-0.803,1.794-1.795C119.406,117.684,118.6,116.881,117.612,116.881z"/>
		<path fill="#FF2424" d="M103.093,97.842c0.545-0.433,0.634-1.224,0.196-1.768l-2.323-2.906c-0.434-0.544-1.226-0.632-1.77-0.196
			c-0.366,0.29-0.524,0.744-0.458,1.174c0.032,0.22,0.123,0.424,0.262,0.597l2.322,2.903
			C101.757,98.19,102.549,98.278,103.093,97.842z"/>
	</g>
</g>
</svg>
