<?xml version="1.0" encoding="utf-8"?>
<!-- Generator: Adobe Illustrator 16.0.0, SVG Export Plug-In . SVG Version: 6.00 Build 0)  -->
<!DOCTYPE svg PUBLIC "-//W3C//DTD SVG 1.1//EN" "http://www.w3.org/Graphics/SVG/1.1/DTD/svg11.dtd">
<svg version="1.1" id="图层_1" xmlns="http://www.w3.org/2000/svg" xmlns:xlink="http://www.w3.org/1999/xlink" x="0px" y="0px"
	 width="105px" height="105px" viewBox="48 45.659 105 105" enable-background="new 48 45.659 105 105" xml:space="preserve">
<rect x="59.886" y="111.306" fill="#0084FC" width="81.838" height="26.377"/>
<rect x="60.474" y="55.458" fill="none" width="79.924" height="82.272"/>
<path fill="#55B6FF" d="M128.445,90.786c-15.675,0-15.675-8.017-31.349-8.017c-15.672,0-15.672,8.017-31.345,8.017
	c-2.59,0-4.775-0.302-6.696-0.786v17.604c1.922-0.483,4.108-0.785,6.7-0.785c15.674,0,15.674,8.016,31.349,8.016
	c15.672,0,15.672-8.016,31.345-8.016c6.051,0,9.918,1.625,13.274,3.45V87.335C138.366,89.159,134.499,90.786,128.445,90.786z"/>
<path fill="#0084FC" d="M143.342,117.455c-10.174,2.894-10.952-2.687-21.529-2.687s-10.577,2.738-21.154,2.738
	c-10.579,0-10.579-2.738-21.157-2.738s-11.355,5.575-21.531,2.687c-2.889-0.819,1.744-4.32,1.744-7.323
	c0-3.006-2.74-3.006-2.74-6.012c0-3.007,2.74-3.007,2.74-6.015c0-3.008-4.638-6.51-1.744-7.333
	C68.142,87.88,68.92,93.46,79.497,93.46c10.577,0,10.577-2.74,21.155-2.74s10.578,2.74,21.157,2.74
	c10.58,0,11.355-5.577,21.532-2.688c2.889,0.82-1.744,4.321-1.744,7.324c0,3.006,2.739,3.006,2.739,6.011
	c0,3.008-3.454,3.451-2.695,6.36C142.667,114.402,146.234,116.632,143.342,117.455z"/>
<path fill="#DCDDDD" d="M140.398,55.458v82.272H60.474V55.458h-4.415v84.48c0,1.221,0.988,2.207,2.208,2.207h84.338
	c1.22,0,2.208-0.986,2.208-2.207v-84.48H140.398z"/>
</svg>
